<svg width="298.3625px" height="141.2px" xmlns="http://www.w3.org/2000/svg" viewBox="100.81875 4.400000000000006 298.3625 141.2" style="background: rgb(0, 0, 0);" preserveAspectRatio="xMidYMid"><defs><linearGradient id="editing-sticker-gradient" x1="0.5" y1="0.2" x2="0.5" y2="0.8"><stop offset="0" stop-color="#85a2b6"></stop><stop offset="1" stop-color="#bbcedd"></stop></linearGradient><filter id="editing-sticker" x="-100%" y="-100%" width="300%" height="300%"><feMorphology operator="erode" radius="1" in="SourceAlpha" result="alpha-erode"></feMorphology><feConvolveMatrix order="3,3" divisor="1" kernelMatrix="0 1 0 1 1 1 0 1 0" in="alpha-erode" result="alpha-round"></feConvolveMatrix><feMorphology operator="dilate" radius="3.5" in="alpha-round" result="dilate-shadow"></feMorphology><feGaussianBlur in="dilate-shadow" stdDeviation="1.5" result="shadow"></feGaussianBlur><feFlood flood-color="#fff" result="flood-sticker"></feFlood><feComposite operator="in" in="flood-sticker" in2="alpha-round" result="comp-sticker"></feComposite><feMorphology operator="dilate" radius="3" in="comp-sticker" result="morph-sticker"></feMorphology><feConvolveMatrix order="3,3" divisor="1" kernelMatrix="0 1 0 1 1 1 0 1 0" in="morph-sticker" result="sticker"></feConvolveMatrix><feMerge><feMergeNode in="shadow"></feMergeNode><feMergeNode in="sticker"></feMergeNode><feMergeNode in="SourceGraphic"></feMergeNode></feMerge></filter></defs><g filter="url(#editing-sticker)"><g transform="translate(147.46498346328735, 108.56499862670898)"><path d="M0.94-5.47L0.94-5.47L0.94-5.47Q0.94-6.63 1.91-7.53L1.91-7.53L1.91-7.53Q2.88-8.44 3.41-8.78L3.41-8.78L3.41-8.78Q3.94-9.13 4.13-9.31L4.13-9.31L4.13-9.31Q4.44-3.63 11.81-3.63L11.81-3.63L11.81-3.63Q17.63-3.63 25.38-7.25L25.38-7.25L25.38-7.25Q30.88-9.75 32.75-12.38L32.75-12.38L32.75-12.38Q33.38-13.19 33.38-13.72L33.38-13.72L33.38-13.72Q33.38-14.25 33.19-14.56L33.19-14.56L7.25-20.38L7.25-20.38Q6.13-20.63 5.06-21.44L5.06-21.44L5.06-21.44Q3.13-22.81 3.13-23.94L3.13-23.94L3.13-23.94Q3.13-28.25 9.25-31.75L9.25-31.75L9.25-31.75Q16-35.56 27.31-37.50L27.31-37.50L27.31-37.50Q29.88-37.94 31.13-38L31.13-38L31.13-38Q31.50-37.88 32.28-37.78L32.28-37.78L32.28-37.78Q33.06-37.69 33.88-37.50L33.88-37.50L33.88-37.50Q35.81-37.06 35.50-35.88L35.50-35.88L35.50-35.88Q35.50-33.75 27.38-32.50L27.38-32.50L27.38-32.50Q16.88-30.94 14.28-29.88L14.28-29.88L14.28-29.88Q11.69-28.81 10.53-27.69L10.53-27.69L10.53-27.69Q9.38-26.56 9.31-25L9.31-25L9.31-25Q9.31-24.69 10.75-24.31L10.75-24.31L10.75-24.31Q12.19-23.94 14.19-23.41L14.19-23.41L14.19-23.41Q16.19-22.88 19.38-22L19.38-22L19.38-22Q27.13-19.88 38.38-16.63L38.38-16.63L38.38-16.63Q39-15.25 39-14.06L39-14.06L39-14.06Q39-10.75 35.13-7.69L35.13-7.69L35.13-7.69Q30.75-4.25 23-1.88L23-1.88L23-1.88Q16.56 0.06 12.75 0.06L12.75 0.06L12.75 0.06Q9.56 0.06 6.69-1.06L6.69-1.06L6.69-1.06Q3.81-2.19 2.38-3.25L2.38-3.25L2.38-3.25Q0.94-4.31 0.94-5.47ZM66.56-17.25L66.56-17.25L66.56-17.25Q65.19-12.69 64.28-8.81L64.28-8.81L64.28-8.81Q63.38-4.94 62.50-2.38L62.50-2.38L62.50-2.38Q61.13 1.31 59.38 1.31L59.38 1.31L59.38 1.31Q58.44 1.31 57.25 0.44L57.25 0.44L57.25 0.44Q54.38-2.63 49.13-13.13L49.13-13.13L49.13-13.13Q44-23.38 44-25.94L44-25.94L44-25.94Q44-27.06 44.69-27.34L44.69-27.34L44.69-27.34Q45.38-27.63 46.25-27.38L46.25-27.38L46.25-27.38Q48.38-26.75 49.25-25.44L49.25-25.44L49.25-25.44Q49.69-24.81 50.31-23.25L50.31-23.25L51.88-19.38L51.88-19.38Q54.50-12.81 57.06-7.38L57.06-7.38L57.06-7.38Q58.44-9.50 59.69-12.88L59.69-12.88L61.63-18.25L61.63-18.25Q64.13-25.31 66.13-25.44L66.13-25.44L66.13-25.44Q67.69-26.44 75.50-14.38L75.50-14.38L75.50-14.38Q78.81-9.25 79.63-8.25L79.63-8.25L79.63-8.25Q80.19-8.25 80.97-12L80.97-12L80.97-12Q81.75-15.75 82.34-18.34L82.34-18.34L82.34-18.34Q82.94-20.94 83.81-23.19L83.81-23.19L83.81-23.19Q85.88-28.44 88.56-28.44L88.56-28.44L88.56-28.44Q89.44-28.44 89.78-27.84L89.78-27.84L89.78-27.84Q90.13-27.25 90.13-26.88L90.13-26.88L90.13-26.88Q90.13-26.50 90.13-26.31L90.13-26.31L90.13-26.31Q89.38-24.19 88.56-21.47L88.56-21.47L88.56-21.47Q87.75-18.75 86.84-15.91L86.84-15.91L86.84-15.91Q85.94-13.06 85.03-10.28L85.03-10.28L85.03-10.28Q84.13-7.50 83.25-5.25L83.25-5.25L83.25-5.25Q81.19-0.38 79.81 0L79.81 0L79.81 0Q78.75 0.50 76.38-2.44L76.38-2.44L76.38-2.44Q75.31-3.81 74.13-5.69L74.13-5.69L74.13-5.69Q72.94-7.56 71.63-9.56L71.63-9.56L71.63-9.56Q68.44-14.56 66.56-17.25ZM119.13-10.38L119.13-10.38L119.13-10.38Q114.44-3 106.63-1.25L106.63-1.25L106.63-1.25Q104.81-0.88 103.34-0.88L103.34-0.88L103.34-0.88Q101.88-0.88 100.91-0.91L100.91-0.91L100.91-0.91Q99.94-0.94 98.75-1.19L98.75-1.19L98.75-1.19Q97.56-1.44 96.56-2L96.56-2L96.56-2Q94.25-3.31 94.25-5.69L94.25-5.69L94.25-5.69Q94-6.81 94-8.22L94-8.22L94-8.22Q94-9.63 94.63-11.94L94.63-11.94L94.63-11.94Q95.25-14.25 96.91-16.94L96.91-16.94L96.91-16.94Q98.56-19.63 100.94-21.88L100.94-21.88L100.94-21.88Q105.88-26.63 111.63-28L111.63-28L111.63-28Q113.31-28.38 114.72-28.38L114.72-28.38L114.72-28.38Q116.13-28.38 117.25-28.19L117.25-28.19L117.25-28.19Q120.88-28.19 122.13-23.25L122.13-23.25L122.13-23.25Q122.94-20.13 123.09-14.53L123.09-14.53L123.09-14.53Q123.25-8.94 123.41-5.91L123.41-5.91L123.41-5.91Q123.56-2.88 124.19-0.38L124.19-0.38L120.50-0.38L120.50-0.38Q120.25-2.06 120.13-3.38L120.13-3.38L120.13-3.38Q120-4.69 119.88-5.81L119.88-5.81L119.88-5.81Q119.56-8.44 119.13-10.38ZM118.88-20.06L118.88-20.06L118.88-20.06Q118.88-23.69 115.31-23.69L115.31-23.69L115.31-23.69Q114.88-23.75 114.44-23.75L114.44-23.75L114.44-23.75Q109.88-23.75 104.81-19.38L104.81-19.38L104.81-19.38Q102.44-17.38 100.75-14.88L100.75-14.88L100.75-14.88Q98.25-11.31 98.25-8.50L98.25-8.50L98.25-8.50Q98.25-4.81 102.50-4.13L102.50-4.13L102.50-4.13Q108.13-4.25 113.25-9.25L113.25-9.25L113.25-9.25Q115.44-11.44 116.88-14L116.88-14L116.88-14Q118.88-17.44 118.88-20.06ZM157.81-22.81L157.81-22.81L157.81-22.81Q155.19-24.69 151.06-24.69L151.06-24.69L151.06-24.69Q147.19-24.69 143.88-23.25L143.88-23.25L143.88-23.25Q137.63-20.63 135.31-16.50L135.31-16.50L135.31-16.50Q134.31-14.63 134.31-12.50L134.31-12.50L134.31-12.50Q134.31-12.13 134.31-10.41L134.31-10.41L134.31-10.41Q134.31-8.69 134.94-5.78L134.94-5.78L134.94-5.78Q135.56-2.88 135.56 0.13L135.56 0.13L135.56 0.13Q134.25 0.19 133.44 0.44L133.44 0.44L133.44 0.44Q132.63 0.69 132.06 0.69L132.06 0.69L132.06 0.69Q131.50 0.69 131.09 0.19L131.09 0.19L131.09 0.19Q130.69-0.31 130.19-1.75L130.19-1.75L130.19-1.75Q130.13-2.13 129.94-3.88L129.94-3.88L129.94-3.88Q129.75-5.63 129.47-8.13L129.47-8.13L129.47-8.13Q129.19-10.63 128.84-13.59L128.84-13.59L128.84-13.59Q128.50-16.56 128.19-19.44L128.19-19.44L128.19-19.44Q127.50-25.69 127.13-28.63L127.13-28.63L127.13-28.63Q127.13-30.13 129.31-30.13L129.31-30.13L129.31-30.13Q130.63-30.13 131.38-29.03L131.38-29.03L131.38-29.03Q132.13-27.94 132.56-26.53L132.56-26.53L132.56-26.53Q133-25.13 133.16-23.75L133.16-23.75L133.16-23.75Q133.31-22.38 133.44-21.81L133.44-21.81L133.44-21.81Q141.69-29.19 153.94-29.19L153.94-29.19L153.94-29.19Q155.31-29.19 156.81-29.13L156.81-29.13L156.81-29.13Q157.19-29.19 157.75-29.19L157.75-29.19L157.75-29.19Q158.31-29.19 158.88-28.44L158.88-28.44L158.88-28.44Q159.56-27.56 159.56-26.31L159.56-26.31L159.56-26.31Q159.56-23.19 157.81-22.81ZM187-10.38L187-10.38L187-10.38Q182.31-3 174.50-1.25L174.50-1.25L174.50-1.25Q172.69-0.88 171.22-0.88L171.22-0.88L171.22-0.88Q169.75-0.88 168.78-0.91L168.78-0.91L168.78-0.91Q167.81-0.94 166.63-1.19L166.63-1.19L166.63-1.19Q165.44-1.44 164.44-2L164.44-2L164.44-2Q162.13-3.31 162.13-5.69L162.13-5.69L162.13-5.69Q161.88-6.81 161.88-8.22L161.88-8.22L161.88-8.22Q161.88-9.63 162.50-11.94L162.50-11.94L162.50-11.94Q163.13-14.25 164.78-16.94L164.78-16.94L164.78-16.94Q166.44-19.63 168.81-21.88L168.81-21.88L168.81-21.88Q173.75-26.63 179.50-28L179.50-28L179.50-28Q181.19-28.38 182.59-28.38L182.59-28.38L182.59-28.38Q184-28.38 185.13-28.19L185.13-28.19L185.13-28.19Q188.75-28.19 190-23.25L190-23.25L190-23.25Q190.81-20.13 190.97-14.53L190.97-14.53L190.97-14.53Q191.13-8.94 191.28-5.91L191.28-5.91L191.28-5.91Q191.44-2.88 192.06-0.38L192.06-0.38L188.38-0.38L188.38-0.38Q188.13-2.06 188-3.38L188-3.38L188-3.38Q187.88-4.69 187.75-5.81L187.75-5.81L187.75-5.81Q187.44-8.44 187-10.38ZM186.75-20.06L186.75-20.06L186.75-20.06Q186.75-23.69 183.19-23.69L183.19-23.69L183.19-23.69Q182.75-23.75 182.31-23.75L182.31-23.75L182.31-23.75Q177.75-23.75 172.69-19.38L172.69-19.38L172.69-19.38Q170.31-17.38 168.63-14.88L168.63-14.88L168.63-14.88Q166.13-11.31 166.13-8.50L166.13-8.50L166.13-8.50Q166.13-4.81 170.38-4.13L170.38-4.13L170.38-4.13Q176-4.25 181.13-9.25L181.13-9.25L181.13-9.25Q183.31-11.44 184.75-14L184.75-14L184.75-14Q186.75-17.44 186.75-20.06ZM204.13 12.50L204.13 12.50L204.13 12.50Q204.13 22.94 198.63 22.94L198.63 22.94L198.63 22.94Q198.06 22.94 197.22 22.91L197.22 22.91L197.22 22.91Q196.38 22.88 194.72 22.66L194.72 22.66L194.72 22.66Q193.06 22.44 191.38 21.88L191.38 21.88L191.38 21.88Q187.31 20.50 186.19 17.88L186.19 17.88L186.19 17.88Q186.19 17.69 186.50 17L186.50 17L186.50 17Q187.06 15.75 187.06 15.56L187.06 15.56L187.06 15.56Q189.13 17.13 191.50 18.50L191.50 18.50L191.50 18.50Q193.88 19.88 196.56 19.88L196.56 19.88L196.56 19.88Q198.38 19.88 199.44 17.25L199.44 17.25L199.44 17.25Q200.44 15 200.44 12.75L200.44 12.75L200.44 12.75Q200.44 6.69 199.56-3L199.56-3L199.56-3Q198.31-17.56 198.31-21.53L198.31-21.53L198.31-21.53Q198.31-25.50 198.44-28L198.44-28L198.44-28Q198.25-29.50 199.81-30.25L199.81-30.25L199.81-30.25Q201-30.81 202.44-30.81L202.44-30.81L202.44-30.81Q201.88-26.94 201.88-24.69L201.88-24.69L201.88-24.69Q201.88-22.44 201.91-20.03L201.91-20.03L201.91-20.03Q201.94-17.63 202.28-13L202.28-13L202.28-13Q202.63-8.38 203.06-3.75L203.06-3.75L203.06-3.75Q204.13 6.31 204.13 12.50ZM200.19-44.19L200.19-44.19L200.19-44.19Q201.19-43.50 201.19-42L201.19-42L201.19-42Q201.19-40.50 200.06-40.19L200.06-40.19L200.06-40.19Q200-40.19 199.59-40.19L199.59-40.19L199.59-40.19Q199.19-40.19 198.25-41L198.25-41L198.25-41Q198.25-43 199.19-43.88L199.19-43.88L199.19-43.88Q199.56-44.19 200.19-44.19Z" fill="url(#editing-sticker-gradient)" stroke="#dce4eb" stroke-width="2.5"></path></g></g><style>text {
  font-size: 64px;
  font-family: Arial Black;
  dominant-baseline: central;
  text-anchor: middle;
}</style></svg>